<svg width="116" height="40" viewBox="0 0 116 40" fill="none" xmlns="http://www.w3.org/2000/svg">
<path d="M44.1084 10.6647C44.8099 10.6647 45.3799 10.8985 45.8768 11.3952C46.3737 11.8919 46.6076 12.4617 46.6076 13.1629V16.5376C46.6076 18.1154 45.6137 18.4222 45.6137 18.4222C45.6137 18.4222 46.6076 18.5975 46.6076 20.3945V23.8422C46.6076 24.5289 46.3737 25.0986 45.906 25.5515C45.4237 26.0044 44.8391 26.2381 44.123 26.2381H41.6092V10.6647H44.1084ZM42.7053 17.8963H43.1438H44.2107H44.2399H44.2691C45.073 17.8086 45.526 17.2973 45.526 16.4938V13.1191C45.526 12.7392 45.3799 12.4032 45.1168 12.1257C44.8538 11.8481 44.503 11.702 44.1376 11.702H43.1584H42.7199V12.1403V17.458V17.8963H42.7053ZM42.7053 25.1717H43.1438H44.123C44.503 25.1717 44.8391 25.0256 45.1022 24.748C45.3799 24.4704 45.5114 24.1344 45.5114 23.7546V20.3214C45.5114 19.5179 45.0584 19.0066 44.2545 18.9189H44.2253H44.1961H43.1292H42.6907V19.3572V24.7334V25.1717" fill="white"/>
<path d="M74.1863 10.6647C74.8878 10.6647 75.4578 10.8985 75.9547 11.3952C76.4516 11.8919 76.6854 12.4617 76.6854 13.1629V16.5376C76.6854 18.1154 75.6916 18.4222 75.6916 18.4222C75.6916 18.4222 76.6854 18.5975 76.6854 20.3945V23.8422C76.6854 24.5289 76.4516 25.0986 75.9839 25.5515C75.5016 26.0044 74.917 26.2381 74.2009 26.2381H71.6871V10.6647H74.1863ZM72.7832 17.8963H73.2217H74.2886H74.3178H74.347C75.1509 17.8086 75.6039 17.2973 75.6039 16.4938V13.1191C75.6039 12.7392 75.4578 12.4032 75.1947 12.1257C74.9316 11.8481 74.5809 11.702 74.2155 11.702H73.2217H72.7832V12.1403V17.458V17.8963ZM72.7832 25.1717H73.2217H74.2009C74.5809 25.1717 74.917 25.0256 75.1801 24.748C75.4578 24.4704 75.5893 24.1344 75.5893 23.7546V20.3214C75.5893 19.5179 75.1362 19.0066 74.3324 18.9189H74.3032H74.2739H73.2217H72.7832V19.3572V24.7334V25.1717Z" fill="white"/>
<path d="M53.6959 12.8853V13.718H50.7729H50.3344V14.0979V18.4368V18.8167H50.7729H53.6959V19.6494H50.7729H50.3344V20.0292V25.084V25.4638H50.7729H53.6959V26.2966H49.2383V12.8853H53.6959Z" fill="white"/>
<path d="M58.5481 12.6954C59.2642 12.6954 59.8488 12.9 60.3457 13.3236C60.8427 13.7473 61.0911 14.244 61.0911 14.843V26.2674H59.995V21.6801V21.3003H59.5565H57.6419H57.2035V21.6801V26.2674H56.1074V14.843C56.1074 14.244 56.3412 13.7473 56.8235 13.3236C57.3058 12.9 57.8612 12.6954 58.5481 12.6954ZM57.1889 20.4675H57.6273H59.5419H59.9804V20.0877V14.7992C59.9804 14.4778 59.8488 14.2002 59.5858 13.9518C59.3227 13.7181 58.9719 13.5866 58.5919 13.5866C58.1973 13.5866 57.8612 13.7181 57.5981 13.9518C57.335 14.1856 57.2035 14.4778 57.2035 14.7992V20.0877V20.4675" fill="white"/>
<path d="M66.3233 12.8123C67.0395 12.8123 67.6241 13.0168 68.121 13.4405C68.6179 13.8641 68.8664 14.3609 68.8664 14.9598V26.2674H67.7702V14.9306C67.7702 14.6092 67.6241 14.317 67.3464 14.0833C67.0687 13.8495 66.7326 13.7327 66.3526 13.7327C65.958 13.7327 65.6072 13.8495 65.3441 14.0833C65.0664 14.317 64.9349 14.6092 64.9349 14.9306V26.2674H63.8534V14.9598C63.8534 14.3609 64.0872 13.8641 64.5695 13.4405C65.0518 13.0168 65.6218 12.8123 66.3233 12.8123Z" fill="white"/>
<path d="M81.9907 12.6954C82.7069 12.6954 83.2915 12.9 83.7884 13.3236C84.2853 13.7473 84.5338 14.244 84.5338 14.843V26.2674H83.4376V21.6801V21.3003H82.9992H81.0846H80.6461V21.6801V26.2674H79.55V14.843C79.55 14.244 79.7838 13.7473 80.2661 13.3236C80.7484 12.9 81.3184 12.6954 81.9907 12.6954ZM80.6461 20.4675H81.0846H82.9992H83.4376V20.0877V14.7992C83.4376 14.4778 83.3061 14.2002 83.043 13.9518C82.7799 13.7181 82.4292 13.5866 82.0492 13.5866C81.6546 13.5866 81.3184 13.7181 81.0553 13.9518C80.7923 14.1856 80.6607 14.4778 80.6607 14.7992V20.0877V20.4675" fill="white"/>
<path d="M92.0751 12.9146V18.2615C92.0751 19.4741 90.9936 19.9708 90.9936 19.9708C90.9936 19.9708 92.0751 20.4091 92.0751 21.6508V26.2527H90.979V21.5924C90.979 21.2564 90.8328 20.9642 90.5698 20.7305C90.3067 20.4967 89.9705 20.3798 89.5905 20.3798H88.8452H88.4067V20.7597V26.2381H87.3106V12.9146H88.4067V19.1235V19.5033H88.8452H89.6052C89.9705 19.5033 90.3067 19.3864 90.5844 19.1381C90.8474 18.9043 90.9936 18.6121 90.9936 18.2761V12.9146H92.0751Z" fill="white"/>
<path d="M99.1634 12.8853V13.718H96.2404H95.8019V14.0979V18.4368V18.8167H96.2404H99.1634V19.6494H96.2404H95.8019V20.0292V25.084V25.4638H96.2404H99.1634V26.2966H94.7058V12.8853H99.1634Z" fill="white"/>
<path d="M104.074 12.8853C104.776 12.8853 105.346 13.0898 105.843 13.5135C106.339 13.9372 106.573 14.4339 106.573 15.0329V17.9255C106.573 19.1527 105.419 19.5325 105.419 19.5325C105.419 19.5325 106.573 19.8977 106.573 21.2272V26.2381H105.521V21.1833C105.521 20.4967 105.053 20.0584 104.249 19.9854H104.22H104.206H103.124H102.686V20.3652V26.282H101.59V12.8853H104.074ZM102.686 19.1088H103.124H104.176H104.206H104.235C105.053 19.0358 105.521 18.5975 105.521 17.9109V15.0183C105.521 14.6969 105.375 14.4047 105.112 14.1709C104.834 13.9372 104.483 13.8203 104.103 13.8203H103.139H102.7V14.1709V18.729V19.1088" fill="white"/>
<path d="M111.922 12.8123C112.624 12.8123 113.209 13.0168 113.705 13.4405C114.202 13.8641 114.436 14.3609 114.436 14.9598V16.8883H113.34V14.916C113.34 14.5946 113.194 14.3024 112.931 14.0687C112.653 13.8349 112.317 13.7181 111.937 13.7181C111.542 13.7181 111.192 13.8349 110.929 14.0687C110.651 14.3024 110.519 14.5946 110.519 14.916V15.4712C110.519 16.3039 110.563 16.5669 110.607 16.6837C110.709 17.0636 110.958 17.5164 111.382 18.057C111.601 18.3492 111.981 18.7582 112.551 19.2842C113.077 19.7663 113.442 20.1607 113.647 20.4383C113.969 20.8912 114.202 21.3148 114.319 21.6947C114.436 22.0745 114.48 22.6443 114.451 23.404V24.2075C114.436 24.821 114.202 25.3178 113.72 25.7414C113.238 26.1505 112.668 26.355 111.966 26.355C111.265 26.355 110.68 26.1505 110.169 25.7268C109.657 25.3032 109.409 24.8064 109.409 24.2075V22.279H110.505V24.2513C110.505 24.5727 110.651 24.8649 110.914 25.0986C111.192 25.3324 111.542 25.4492 111.922 25.4492C112.302 25.4492 112.639 25.3324 112.916 25.0986C113.194 24.8649 113.325 24.5727 113.325 24.2513V23.5793C113.325 22.5566 113.296 22.2937 113.267 22.1914V22.1768C113.165 21.8116 112.916 21.3587 112.492 20.8035C112.259 20.5113 111.879 20.1169 111.309 19.591C110.782 19.1089 110.417 18.7144 110.227 18.4368C109.876 17.9547 109.657 17.5311 109.54 17.1512C109.438 16.8444 109.394 16.3331 109.394 15.6611V14.9744C109.409 14.3755 109.657 13.8788 110.139 13.4551C110.636 13.0168 111.221 12.8123 111.922 12.8123Z" fill="white"/>
<path d="M26.6872 23.2141C26.1464 22.2937 25.401 21.5778 24.2464 20.9642C23.8372 20.7743 23.238 20.6282 22.7849 20.6282C22.7265 20.6282 22.668 20.6282 22.6242 20.6282L22.3173 20.6575L22.5803 20.2776C23.238 19.2842 23.5595 18.3054 23.5888 17.1951L21.4696 17.7648C21.3965 18.2177 21.2357 18.6268 21.0019 19.0066C20.4319 19.9562 19.3796 20.6282 17.9035 21.0373L14.1036 22.0599L14.6297 24.0322L19.8327 22.6443C20.4758 22.469 21.0604 22.3813 21.6011 22.3813C22.9896 22.3813 23.9249 22.9657 24.568 23.7984L26.1464 23.3748C26.3364 23.3309 26.5118 23.2725 26.6872 23.2141Z" fill="#BEBEBE"/>
<path d="M15.3459 11.5413C15.989 11.366 16.5736 11.2783 17.1143 11.2783C18.5028 11.2783 19.4381 11.8627 20.0812 12.6954L21.6596 12.2718C21.835 12.2279 21.9958 12.1695 22.1419 12.1257C21.6304 11.2637 21.0166 10.5917 20.2858 10.1096C19.4089 9.52524 18.3566 9.21844 17.1728 9.21844C16.442 9.21844 15.6528 9.33532 14.8198 9.55446L11.0198 10.5771L11.546 12.5493L15.3459 11.5413Z" fill="#BEBEBE"/>
<path d="M27.491 28.4588L25.9418 28.8678C25.6641 30.4602 24.4657 31.5705 22.3758 32.1403L9.93831 35.4858L7.39528 25.9752L9.55832 25.3908L9.03217 23.4186L6.86914 24.003L4.3115 14.4924L6.47453 13.908L5.94839 11.9358L1.81232 13.0461L8.49141 37.984L22.9165 34.1125C26.1318 33.2506 27.9587 31.103 28.0464 28.2835C27.871 28.3565 27.681 28.4149 27.491 28.4588Z" fill="#BEBEBE"/>
<path d="M21.338 2.01608C22.5218 2.01608 23.5741 2.30827 24.451 2.90724C25.8249 3.82762 26.8333 5.44925 27.4325 7.72828C28.0025 9.86123 27.7979 11.4682 26.731 13.0899L26.4679 13.4697L26.7748 13.4405C26.8333 13.4405 26.8771 13.4405 26.9356 13.4405C27.3887 13.4405 27.9879 13.572 28.3971 13.7765C30.5309 14.9306 31.2471 16.3915 31.9047 18.8459C32.4163 20.7743 32.2409 22.5274 31.3932 23.9591C30.5455 25.3762 29.0402 26.4135 27.0525 26.9394L12.6274 30.8108L5.96295 5.84369L18.985 2.35209C19.8181 2.13296 20.6073 2.01608 21.338 2.01608ZM11.0198 16.786L22.0688 13.8349C25.0503 13.0314 26.2341 11.103 25.4741 8.25421C24.948 6.31119 24.0126 4.07598 21.2942 4.07598C20.7534 4.07598 20.1688 4.16364 19.5258 4.33895L8.47675 7.29001L11.0198 16.786ZM14.1036 28.2688L26.5556 24.9379C29.5371 24.1344 30.7209 22.206 29.9609 19.3572C29.4348 17.4142 28.4994 15.179 25.781 15.179C25.2402 15.179 24.6556 15.2666 24.0126 15.4419L11.5459 18.7728L14.1036 28.2688Z" fill="white"/>
<path d="M3.62455 14.0979L1.79767 13.046L5.96297 5.84369L7.78986 6.89555L3.62455 14.0979Z" fill="url(#paint0_linear)"/>
<path d="M10.6252 36.5815L8.66675 35.4419L12.6128 28.6194L14.5712 29.7444L10.6252 36.5815Z" fill="url(#paint1_linear)"/>
<defs>
<linearGradient id="paint0_linear" x1="6.88023" y1="6.36343" x2="2.71691" y2="13.5777" gradientUnits="userSpaceOnUse">
<stop offset="0.2296" stop-color="white"/>
<stop offset="0.7747" stop-color="#BEBEBE"/>
</linearGradient>
<linearGradient id="paint1_linear" x1="13.5926" y1="29.1784" x2="9.64867" y2="36.0122" gradientUnits="userSpaceOnUse">
<stop offset="0.1812" stop-color="white"/>
<stop offset="0.7855" stop-color="#BEBEBE"/>
</linearGradient>
</defs>
</svg>
