<?xml version="1.0" encoding="utf-8"?>
<!-- Generator: Adobe Illustrator 27.2.0, SVG Export Plug-In . SVG Version: 6.00 Build 0)  -->
<svg version="1.1" id="Layer_1" xmlns="http://www.w3.org/2000/svg" xmlns:xlink="http://www.w3.org/1999/xlink" x="0px" y="0px"
	 viewBox="0 0 2299 1017" style="enable-background:new 0 0 2299 1017;" xml:space="preserve">
<style type="text/css">
	.st0{clip-path:url(#SVGID_00000112616084912125707840000004246724258574647720_);fill:#FFFFFF;}
</style>
<g>
	<defs>
		<rect id="SVGID_1_" width="2299" height="1017"/>
	</defs>
	<clipPath id="SVGID_00000077282558858306470230000012465508977457386655_">
		<use xlink:href="#SVGID_1_"  style="overflow:visible;"/>
	</clipPath>
	<path style="clip-path:url(#SVGID_00000077282558858306470230000012465508977457386655_);fill:#FFFFFF;" d="M489.07,739.64
		c-102.37,0-151.81-57.1-151.81-170.61V459l-59.89-6.96v-71.03h59.89V276.55h83.57v104.46h121.17V459H420.82v110.03
		c0,60.58,20.89,91.23,75.21,91.23h45.96v79.39H489.07z M562.18,559.98c0-117.69,59.89-187.33,163.65-187.33
		c43.17,0,83.56,22.98,106.55,58.5v-50.14h83.56v358.64h-76.6l-6.96-50.14C809.4,726.41,769.01,748,725.83,748
		C622.07,748,562.18,677.67,562.18,559.98 M832.38,552.32c0-53.62-30.64-100.97-92.62-100.97c-67.55,0-93.32,47.35-93.32,108.64
		c0,61.98,25.77,109.33,93.32,109.33C801.74,669.31,832.38,621.96,832.38,552.32 M1036.4,248c19.5,0,35.52,16.02,35.52,35.52v23.68
		c0,20.2-16.02,35.52-35.52,35.52h-29.25c-19.5,0-35.52-15.32-35.52-35.52v-23.68c0-19.5,16.02-35.52,35.52-35.52H1036.4z
		 M979.99,381.01h83.57v358.64h-83.57V381.01z M1106.73,620.56h87.74c2.79,37.6,31.34,50.84,67.55,50.84
		c43.87,0,68.24-13.93,68.24-35.52c0-21.59-18.11-27.86-60.58-34.82l-43.18-6.96c-74.51-11.84-114.21-43.87-114.21-113.51
		c0-62.67,61.28-107.94,141.36-107.94c93.31,0,151.81,63.37,151.81,130.92h-87.74c-2.09-33.43-27.16-54.32-64.07-54.32
		c-39,0-59.89,15.32-59.89,34.82c0,18.8,14.62,29.25,51.53,34.82l41.09,6.27c77.3,11.84,125.35,43.18,125.35,110.03
		c0,68.24-61.28,112.81-149.72,112.81C1165.92,748,1106.73,686.72,1106.73,620.56 M1624.13,739.64
		c-102.37,0-151.81-57.1-151.81-170.61V459l-59.89-6.96v-71.03h59.89V276.55h83.57v104.46h121.17V459h-121.17v110.03
		c0,60.58,20.89,91.23,75.21,91.23h45.96v79.39H1624.13z M2026.63,586.44h-254.87c6.96,48.75,34.12,82.87,90.53,82.87
		c38.3,0,68.24-16.71,72.42-50.14h88.44c0,57.1-64.76,128.83-160.86,128.83c-107.24,0-173.4-70.33-173.4-188.02
		s65.46-187.33,171.31-187.33c102.37,0,166.43,84.26,166.43,174.09V586.44z M1939.59,523.07c-3.48-48.75-36.21-71.73-79.39-71.73
		c-50.84,0-77.99,29.25-87.05,71.73H1939.59z"/>
</g>
</svg>
